<mxfile host="app.diagrams.net" agent="Mozilla/5.0 (Windows NT 10.0; Win64; x64) AppleWebKit/537.36 (KHTML, like Gecko) Chrome/129.0.0.0 Safari/537.36" version="24.7.17">
  <diagram name="페이지-1" id="vigs7npV8LbFMdrxkB_n">
    <mxGraphModel dx="1253" dy="1992" grid="1" gridSize="10" guides="1" tooltips="1" connect="1" arrows="1" fold="1" page="1" pageScale="1" pageWidth="827" pageHeight="1169" math="0" shadow="0">
      <root>
        <mxCell id="0" />
        <mxCell id="1" parent="0" />
        <mxCell id="ldogxYoa8XtggctJiKxC-23" style="edgeStyle=orthogonalEdgeStyle;rounded=0;orthogonalLoop=1;jettySize=auto;html=1;exitX=1;exitY=0.5;exitDx=0;exitDy=0;entryX=0;entryY=0.5;entryDx=0;entryDy=0;strokeWidth=2;fontStyle=1" edge="1" parent="1" source="ldogxYoa8XtggctJiKxC-1" target="ldogxYoa8XtggctJiKxC-3">
          <mxGeometry relative="1" as="geometry" />
        </mxCell>
        <mxCell id="ldogxYoa8XtggctJiKxC-47" style="edgeStyle=orthogonalEdgeStyle;rounded=0;orthogonalLoop=1;jettySize=auto;html=1;exitX=1;exitY=0.5;exitDx=0;exitDy=0;entryX=0;entryY=0.5;entryDx=0;entryDy=0;strokeWidth=2;" edge="1" parent="1" source="ldogxYoa8XtggctJiKxC-1" target="ldogxYoa8XtggctJiKxC-4">
          <mxGeometry relative="1" as="geometry" />
        </mxCell>
        <mxCell id="ldogxYoa8XtggctJiKxC-55" style="edgeStyle=orthogonalEdgeStyle;rounded=0;orthogonalLoop=1;jettySize=auto;html=1;exitX=1;exitY=0.5;exitDx=0;exitDy=0;entryX=0;entryY=0.5;entryDx=0;entryDy=0;strokeWidth=2;" edge="1" parent="1" source="ldogxYoa8XtggctJiKxC-1" target="ldogxYoa8XtggctJiKxC-48">
          <mxGeometry relative="1" as="geometry" />
        </mxCell>
        <mxCell id="ldogxYoa8XtggctJiKxC-1" value="메인 화면" style="whiteSpace=wrap;html=1;strokeWidth=2;fontStyle=1" vertex="1" parent="1">
          <mxGeometry x="80" y="-160" width="120" height="40" as="geometry" />
        </mxCell>
        <mxCell id="ldogxYoa8XtggctJiKxC-25" style="edgeStyle=orthogonalEdgeStyle;rounded=0;orthogonalLoop=1;jettySize=auto;html=1;exitX=1;exitY=0.5;exitDx=0;exitDy=0;entryX=0;entryY=0.5;entryDx=0;entryDy=0;strokeWidth=2;fontStyle=1" edge="1" parent="1" source="ldogxYoa8XtggctJiKxC-3" target="ldogxYoa8XtggctJiKxC-5">
          <mxGeometry relative="1" as="geometry" />
        </mxCell>
        <mxCell id="ldogxYoa8XtggctJiKxC-26" style="edgeStyle=orthogonalEdgeStyle;rounded=0;orthogonalLoop=1;jettySize=auto;html=1;exitX=1;exitY=0.5;exitDx=0;exitDy=0;entryX=0;entryY=0.5;entryDx=0;entryDy=0;strokeWidth=2;fontStyle=1" edge="1" parent="1" source="ldogxYoa8XtggctJiKxC-3" target="ldogxYoa8XtggctJiKxC-8">
          <mxGeometry relative="1" as="geometry">
            <Array as="points">
              <mxPoint x="380" y="-80" />
              <mxPoint x="380" y="-20" />
            </Array>
          </mxGeometry>
        </mxCell>
        <mxCell id="ldogxYoa8XtggctJiKxC-27" style="edgeStyle=orthogonalEdgeStyle;rounded=0;orthogonalLoop=1;jettySize=auto;html=1;exitX=1;exitY=0.5;exitDx=0;exitDy=0;entryX=0;entryY=0.5;entryDx=0;entryDy=0;strokeWidth=2;fontStyle=1" edge="1" parent="1" source="ldogxYoa8XtggctJiKxC-3" target="ldogxYoa8XtggctJiKxC-9">
          <mxGeometry relative="1" as="geometry">
            <Array as="points">
              <mxPoint x="380" y="-80" />
              <mxPoint x="380" y="40" />
            </Array>
          </mxGeometry>
        </mxCell>
        <mxCell id="ldogxYoa8XtggctJiKxC-28" style="edgeStyle=orthogonalEdgeStyle;rounded=0;orthogonalLoop=1;jettySize=auto;html=1;exitX=1;exitY=0.5;exitDx=0;exitDy=0;entryX=0;entryY=0.5;entryDx=0;entryDy=0;strokeWidth=2;fontStyle=1" edge="1" parent="1" source="ldogxYoa8XtggctJiKxC-3" target="ldogxYoa8XtggctJiKxC-10">
          <mxGeometry relative="1" as="geometry">
            <Array as="points">
              <mxPoint x="380" y="-80" />
              <mxPoint x="380" y="100" />
            </Array>
          </mxGeometry>
        </mxCell>
        <mxCell id="ldogxYoa8XtggctJiKxC-29" style="edgeStyle=orthogonalEdgeStyle;rounded=0;orthogonalLoop=1;jettySize=auto;html=1;exitX=1;exitY=0.5;exitDx=0;exitDy=0;entryX=0;entryY=0.5;entryDx=0;entryDy=0;strokeWidth=2;fontStyle=1" edge="1" parent="1" source="ldogxYoa8XtggctJiKxC-3" target="ldogxYoa8XtggctJiKxC-11">
          <mxGeometry relative="1" as="geometry">
            <Array as="points">
              <mxPoint x="380" y="-80" />
              <mxPoint x="380" y="160" />
            </Array>
          </mxGeometry>
        </mxCell>
        <mxCell id="ldogxYoa8XtggctJiKxC-3" value="카드 일람" style="whiteSpace=wrap;html=1;strokeWidth=2;fontStyle=1" vertex="1" parent="1">
          <mxGeometry x="240" y="-100" width="120" height="40" as="geometry" />
        </mxCell>
        <mxCell id="ldogxYoa8XtggctJiKxC-37" style="edgeStyle=orthogonalEdgeStyle;rounded=0;orthogonalLoop=1;jettySize=auto;html=1;exitX=1;exitY=0.5;exitDx=0;exitDy=0;entryX=0;entryY=0.5;entryDx=0;entryDy=0;strokeWidth=2;fontStyle=1" edge="1" parent="1" source="ldogxYoa8XtggctJiKxC-4" target="ldogxYoa8XtggctJiKxC-13">
          <mxGeometry relative="1" as="geometry" />
        </mxCell>
        <mxCell id="ldogxYoa8XtggctJiKxC-38" style="edgeStyle=orthogonalEdgeStyle;rounded=0;orthogonalLoop=1;jettySize=auto;html=1;exitX=1;exitY=0.5;exitDx=0;exitDy=0;entryX=0;entryY=0.5;entryDx=0;entryDy=0;strokeWidth=2;fontStyle=1" edge="1" parent="1" source="ldogxYoa8XtggctJiKxC-4" target="ldogxYoa8XtggctJiKxC-14">
          <mxGeometry relative="1" as="geometry">
            <Array as="points">
              <mxPoint x="380" y="220" />
              <mxPoint x="380" y="280" />
            </Array>
          </mxGeometry>
        </mxCell>
        <mxCell id="ldogxYoa8XtggctJiKxC-40" style="edgeStyle=orthogonalEdgeStyle;rounded=0;orthogonalLoop=1;jettySize=auto;html=1;exitX=1;exitY=0.5;exitDx=0;exitDy=0;entryX=0;entryY=0.5;entryDx=0;entryDy=0;strokeWidth=2;fontStyle=1" edge="1" parent="1" source="ldogxYoa8XtggctJiKxC-4" target="ldogxYoa8XtggctJiKxC-39">
          <mxGeometry relative="1" as="geometry">
            <Array as="points">
              <mxPoint x="380" y="220" />
              <mxPoint x="380" y="340" />
            </Array>
          </mxGeometry>
        </mxCell>
        <mxCell id="ldogxYoa8XtggctJiKxC-4" value="덱 일람" style="whiteSpace=wrap;html=1;strokeWidth=2;fontStyle=1" vertex="1" parent="1">
          <mxGeometry x="240" y="200" width="120" height="40" as="geometry" />
        </mxCell>
        <mxCell id="ldogxYoa8XtggctJiKxC-30" style="edgeStyle=orthogonalEdgeStyle;rounded=0;orthogonalLoop=1;jettySize=auto;html=1;exitX=1;exitY=0.5;exitDx=0;exitDy=0;entryX=0;entryY=0.5;entryDx=0;entryDy=0;strokeWidth=2;fontStyle=1" edge="1" parent="1" source="ldogxYoa8XtggctJiKxC-5" target="ldogxYoa8XtggctJiKxC-6">
          <mxGeometry relative="1" as="geometry" />
        </mxCell>
        <mxCell id="ldogxYoa8XtggctJiKxC-32" style="edgeStyle=orthogonalEdgeStyle;rounded=0;orthogonalLoop=1;jettySize=auto;html=1;exitX=1;exitY=0.5;exitDx=0;exitDy=0;entryX=0;entryY=0.5;entryDx=0;entryDy=0;strokeWidth=2;fontStyle=1" edge="1" parent="1" source="ldogxYoa8XtggctJiKxC-5" target="ldogxYoa8XtggctJiKxC-7">
          <mxGeometry relative="1" as="geometry">
            <Array as="points">
              <mxPoint x="540" y="-80" />
              <mxPoint x="540" y="-20" />
            </Array>
          </mxGeometry>
        </mxCell>
        <mxCell id="ldogxYoa8XtggctJiKxC-5" value="카드 자세히 보기" style="whiteSpace=wrap;html=1;strokeWidth=2;fontStyle=1" vertex="1" parent="1">
          <mxGeometry x="400" y="-100" width="120" height="40" as="geometry" />
        </mxCell>
        <mxCell id="ldogxYoa8XtggctJiKxC-6" value="해당 카드 제작" style="whiteSpace=wrap;html=1;strokeWidth=2;fontStyle=1" vertex="1" parent="1">
          <mxGeometry x="560" y="-100" width="120" height="40" as="geometry" />
        </mxCell>
        <mxCell id="ldogxYoa8XtggctJiKxC-7" value="해당 카드 분해" style="whiteSpace=wrap;html=1;strokeWidth=2;fontStyle=1" vertex="1" parent="1">
          <mxGeometry x="560" y="-40" width="120" height="40" as="geometry" />
        </mxCell>
        <mxCell id="ldogxYoa8XtggctJiKxC-8" value="덱 생성" style="whiteSpace=wrap;html=1;strokeWidth=2;fontStyle=1" vertex="1" parent="1">
          <mxGeometry x="400" y="-40" width="120" height="40" as="geometry" />
        </mxCell>
        <mxCell id="ldogxYoa8XtggctJiKxC-35" style="edgeStyle=orthogonalEdgeStyle;rounded=0;orthogonalLoop=1;jettySize=auto;html=1;exitX=1;exitY=0.5;exitDx=0;exitDy=0;entryX=0;entryY=0.5;entryDx=0;entryDy=0;strokeWidth=2;fontStyle=1" edge="1" parent="1" source="ldogxYoa8XtggctJiKxC-9" target="ldogxYoa8XtggctJiKxC-33">
          <mxGeometry relative="1" as="geometry" />
        </mxCell>
        <mxCell id="ldogxYoa8XtggctJiKxC-36" style="edgeStyle=orthogonalEdgeStyle;rounded=0;orthogonalLoop=1;jettySize=auto;html=1;exitX=1;exitY=0.5;exitDx=0;exitDy=0;entryX=0;entryY=0.5;entryDx=0;entryDy=0;strokeWidth=2;fontStyle=1" edge="1" parent="1" source="ldogxYoa8XtggctJiKxC-9" target="ldogxYoa8XtggctJiKxC-34">
          <mxGeometry relative="1" as="geometry">
            <Array as="points">
              <mxPoint x="540" y="40" />
              <mxPoint x="540" y="100" />
            </Array>
          </mxGeometry>
        </mxCell>
        <mxCell id="ldogxYoa8XtggctJiKxC-9" value="덱 편집" style="whiteSpace=wrap;html=1;strokeWidth=2;fontStyle=1" vertex="1" parent="1">
          <mxGeometry x="400" y="20" width="120" height="40" as="geometry" />
        </mxCell>
        <mxCell id="ldogxYoa8XtggctJiKxC-10" value="선택 카드 분해" style="whiteSpace=wrap;html=1;strokeWidth=2;fontStyle=1" vertex="1" parent="1">
          <mxGeometry x="400" y="80" width="120" height="40" as="geometry" />
        </mxCell>
        <mxCell id="ldogxYoa8XtggctJiKxC-11" value="여분 카드 분해" style="whiteSpace=wrap;html=1;strokeWidth=2;fontStyle=1" vertex="1" parent="1">
          <mxGeometry x="400" y="140" width="120" height="40" as="geometry" />
        </mxCell>
        <mxCell id="ldogxYoa8XtggctJiKxC-41" style="edgeStyle=orthogonalEdgeStyle;rounded=0;orthogonalLoop=1;jettySize=auto;html=1;exitX=1;exitY=0.5;exitDx=0;exitDy=0;entryX=0;entryY=0.5;entryDx=0;entryDy=0;strokeWidth=2;fontStyle=1" edge="1" parent="1" source="ldogxYoa8XtggctJiKxC-13" target="ldogxYoa8XtggctJiKxC-15">
          <mxGeometry relative="1" as="geometry" />
        </mxCell>
        <mxCell id="ldogxYoa8XtggctJiKxC-13" value="덱 생성" style="whiteSpace=wrap;html=1;strokeWidth=2;fontStyle=1" vertex="1" parent="1">
          <mxGeometry x="400" y="200" width="120" height="40" as="geometry" />
        </mxCell>
        <mxCell id="ldogxYoa8XtggctJiKxC-44" style="edgeStyle=orthogonalEdgeStyle;rounded=0;orthogonalLoop=1;jettySize=auto;html=1;exitX=1;exitY=0.5;exitDx=0;exitDy=0;entryX=0;entryY=0.5;entryDx=0;entryDy=0;strokeWidth=2;fontStyle=1" edge="1" parent="1" source="ldogxYoa8XtggctJiKxC-14" target="ldogxYoa8XtggctJiKxC-18">
          <mxGeometry relative="1" as="geometry" />
        </mxCell>
        <mxCell id="ldogxYoa8XtggctJiKxC-45" style="edgeStyle=orthogonalEdgeStyle;rounded=0;orthogonalLoop=1;jettySize=auto;html=1;exitX=1;exitY=0.5;exitDx=0;exitDy=0;entryX=0;entryY=0.5;entryDx=0;entryDy=0;strokeWidth=2;fontStyle=1" edge="1" parent="1" source="ldogxYoa8XtggctJiKxC-14" target="ldogxYoa8XtggctJiKxC-19">
          <mxGeometry relative="1" as="geometry">
            <Array as="points">
              <mxPoint x="540" y="280" />
              <mxPoint x="540" y="340" />
            </Array>
          </mxGeometry>
        </mxCell>
        <mxCell id="ldogxYoa8XtggctJiKxC-46" style="edgeStyle=orthogonalEdgeStyle;rounded=0;orthogonalLoop=1;jettySize=auto;html=1;exitX=1;exitY=0.5;exitDx=0;exitDy=0;entryX=0;entryY=0.5;entryDx=0;entryDy=0;strokeWidth=2;fontStyle=1" edge="1" parent="1" source="ldogxYoa8XtggctJiKxC-14" target="ldogxYoa8XtggctJiKxC-22">
          <mxGeometry relative="1" as="geometry">
            <Array as="points">
              <mxPoint x="540" y="280" />
              <mxPoint x="540" y="400" />
            </Array>
          </mxGeometry>
        </mxCell>
        <mxCell id="ldogxYoa8XtggctJiKxC-14" value="덱 편집" style="whiteSpace=wrap;html=1;strokeWidth=2;fontStyle=1" vertex="1" parent="1">
          <mxGeometry x="400" y="260" width="120" height="40" as="geometry" />
        </mxCell>
        <mxCell id="ldogxYoa8XtggctJiKxC-43" style="edgeStyle=orthogonalEdgeStyle;rounded=0;orthogonalLoop=1;jettySize=auto;html=1;exitX=1;exitY=0.5;exitDx=0;exitDy=0;entryX=0;entryY=0.5;entryDx=0;entryDy=0;strokeWidth=2;fontStyle=1" edge="1" parent="1" source="ldogxYoa8XtggctJiKxC-15" target="ldogxYoa8XtggctJiKxC-16">
          <mxGeometry relative="1" as="geometry" />
        </mxCell>
        <mxCell id="ldogxYoa8XtggctJiKxC-15" value="메인 덱 편집" style="whiteSpace=wrap;html=1;strokeWidth=2;fontStyle=1" vertex="1" parent="1">
          <mxGeometry x="562" y="200" width="120" height="40" as="geometry" />
        </mxCell>
        <mxCell id="ldogxYoa8XtggctJiKxC-16" value="스킬 덱 편집" style="whiteSpace=wrap;html=1;strokeWidth=2;fontStyle=1" vertex="1" parent="1">
          <mxGeometry x="720" y="200" width="125" height="40" as="geometry" />
        </mxCell>
        <mxCell id="ldogxYoa8XtggctJiKxC-18" value="메인 덱 편집" style="whiteSpace=wrap;html=1;strokeWidth=2;fontStyle=1" vertex="1" parent="1">
          <mxGeometry x="562" y="260" width="120" height="40" as="geometry" />
        </mxCell>
        <mxCell id="ldogxYoa8XtggctJiKxC-19" value="스킬 덱 편집" style="whiteSpace=wrap;html=1;strokeWidth=2;fontStyle=1" vertex="1" parent="1">
          <mxGeometry x="562" y="320" width="120" height="40" as="geometry" />
        </mxCell>
        <mxCell id="ldogxYoa8XtggctJiKxC-22" value="시작 배치 설정" style="whiteSpace=wrap;html=1;strokeWidth=2;fontStyle=1" vertex="1" parent="1">
          <mxGeometry x="562" y="380" width="120" height="40" as="geometry" />
        </mxCell>
        <mxCell id="ldogxYoa8XtggctJiKxC-33" value="메인 덱 편집" style="whiteSpace=wrap;html=1;strokeWidth=2;fontStyle=1" vertex="1" parent="1">
          <mxGeometry x="560" y="20" width="120" height="40" as="geometry" />
        </mxCell>
        <mxCell id="ldogxYoa8XtggctJiKxC-34" value="스킬 덱 편집" style="whiteSpace=wrap;html=1;strokeWidth=2;fontStyle=1" vertex="1" parent="1">
          <mxGeometry x="560" y="80" width="120" height="40" as="geometry" />
        </mxCell>
        <mxCell id="ldogxYoa8XtggctJiKxC-39" value="덱 삭제" style="whiteSpace=wrap;html=1;strokeWidth=2;fontStyle=1" vertex="1" parent="1">
          <mxGeometry x="400" y="320" width="120" height="40" as="geometry" />
        </mxCell>
        <mxCell id="ldogxYoa8XtggctJiKxC-52" style="edgeStyle=orthogonalEdgeStyle;rounded=0;orthogonalLoop=1;jettySize=auto;html=1;exitX=1;exitY=0.5;exitDx=0;exitDy=0;entryX=0;entryY=0.5;entryDx=0;entryDy=0;strokeWidth=2;" edge="1" parent="1" source="ldogxYoa8XtggctJiKxC-48" target="ldogxYoa8XtggctJiKxC-49">
          <mxGeometry relative="1" as="geometry" />
        </mxCell>
        <mxCell id="ldogxYoa8XtggctJiKxC-53" style="edgeStyle=orthogonalEdgeStyle;rounded=0;orthogonalLoop=1;jettySize=auto;html=1;exitX=1;exitY=0.5;exitDx=0;exitDy=0;entryX=0;entryY=0.5;entryDx=0;entryDy=0;strokeWidth=2;" edge="1" parent="1" source="ldogxYoa8XtggctJiKxC-48" target="ldogxYoa8XtggctJiKxC-50">
          <mxGeometry relative="1" as="geometry" />
        </mxCell>
        <mxCell id="ldogxYoa8XtggctJiKxC-54" style="edgeStyle=orthogonalEdgeStyle;rounded=0;orthogonalLoop=1;jettySize=auto;html=1;exitX=1;exitY=0.5;exitDx=0;exitDy=0;entryX=0;entryY=0.5;entryDx=0;entryDy=0;strokeWidth=2;" edge="1" parent="1" source="ldogxYoa8XtggctJiKxC-48" target="ldogxYoa8XtggctJiKxC-51">
          <mxGeometry relative="1" as="geometry" />
        </mxCell>
        <mxCell id="ldogxYoa8XtggctJiKxC-48" value="대전" style="whiteSpace=wrap;html=1;strokeWidth=2;fontStyle=1" vertex="1" parent="1">
          <mxGeometry x="620" y="-160" width="120" height="40" as="geometry" />
        </mxCell>
        <mxCell id="ldogxYoa8XtggctJiKxC-49" value="랭크전" style="whiteSpace=wrap;html=1;strokeWidth=2;fontStyle=1" vertex="1" parent="1">
          <mxGeometry x="780" y="-160" width="120" height="40" as="geometry" />
        </mxCell>
        <mxCell id="ldogxYoa8XtggctJiKxC-50" value="일반전" style="whiteSpace=wrap;html=1;strokeWidth=2;fontStyle=1" vertex="1" parent="1">
          <mxGeometry x="780" y="-100" width="120" height="40" as="geometry" />
        </mxCell>
        <mxCell id="ldogxYoa8XtggctJiKxC-51" value="레이드 던전" style="whiteSpace=wrap;html=1;strokeWidth=2;fontStyle=1" vertex="1" parent="1">
          <mxGeometry x="780" y="-40" width="120" height="40" as="geometry" />
        </mxCell>
      </root>
    </mxGraphModel>
  </diagram>
</mxfile>
